# xmcd CD database file
#
# Track frame offsets:
#	150
#	29840
#	74852
#	91652
#	125280
#	150735
#	179407
#	213527
#	241647
#	272350
#
# Disc length: 4039 seconds
#
# Revision: 0
# Processed by: cddbd v1.5.2PL0 Copyright (c) Steve Scherf et al.
# Submitted via: CDex 1.51
#
DISCID=890fc50a
DTITLE=Stern, Peggy  - The Fuchsia [with Thomas Chapin, Drew Gress, and Bobby Previte]
DYEAR=1995
DGENRE=Jazz
TTITLE0=Lemon Essence [Peggy Stern]
TTITLE1=Bar Flies [Peggy Stern]
TTITLE2=Win Slow [Peggy Stern]
TTITLE3=Don't Mind If I Do [Thomas Chapin]
TTITLE4=The Fuchsia [Peggy Stern]
TTITLE5=The Tomboy [Peggy Stern]
TTITLE6=You in That Nightie [Peggy Stern]
TTITLE7=The Magpie [Peggy Stern]
TTITLE8=Can't Complain [Peggy Stern]
TTITLE9=Not Since Bud [Bobby Previte]
EXTD=YEAR: 1995
EXTT0=
EXTT1=
EXTT2=
EXTT3=
EXTT4=
EXTT5=
EXTT6=
EXTT7=
EXTT8=
EXTT9=
PLAYORDER=
